<mxfile host="65bd71144e">
    <diagram id="LE6XRncKVAzE6FqqXh9P" name="Page-1">
        <mxGraphModel dx="843" dy="591" grid="1" gridSize="10" guides="1" tooltips="1" connect="1" arrows="1" fold="1" page="1" pageScale="1" pageWidth="827" pageHeight="1169" math="0" shadow="0">
            <root>
                <mxCell id="0"/>
                <mxCell id="1" parent="0"/>
                <mxCell id="4" value="" style="edgeStyle=orthogonalEdgeStyle;rounded=0;orthogonalLoop=1;jettySize=auto;html=1;" parent="1" source="2" target="3" edge="1">
                    <mxGeometry relative="1" as="geometry"/>
                </mxCell>
                <mxCell id="2" value="Inicio" style="ellipse;whiteSpace=wrap;html=1;" parent="1" vertex="1">
                    <mxGeometry x="310" y="10" width="120" height="80" as="geometry"/>
                </mxCell>
                <mxCell id="6" value="" style="edgeStyle=orthogonalEdgeStyle;rounded=0;orthogonalLoop=1;jettySize=auto;html=1;" parent="1" source="3" target="5" edge="1">
                    <mxGeometry relative="1" as="geometry"/>
                </mxCell>
                <mxCell id="3" value="Rigistrar piking de entrada&amp;nbsp;" style="whiteSpace=wrap;html=1;" parent="1" vertex="1">
                    <mxGeometry x="310" y="150" width="120" height="60" as="geometry"/>
                </mxCell>
                <mxCell id="27" value="" style="edgeStyle=orthogonalEdgeStyle;rounded=0;orthogonalLoop=1;jettySize=auto;html=1;" parent="1" source="5" target="26" edge="1">
                    <mxGeometry relative="1" as="geometry"/>
                </mxCell>
                <mxCell id="5" value="Validar de piking" style="whiteSpace=wrap;html=1;" parent="1" vertex="1">
                    <mxGeometry x="310" y="270" width="120" height="60" as="geometry"/>
                </mxCell>
                <mxCell id="16" value="Fin" style="ellipse;whiteSpace=wrap;html=1;" parent="1" vertex="1">
                    <mxGeometry x="315" y="710" width="120" height="60" as="geometry"/>
                </mxCell>
                <mxCell id="25" value="" style="shape=waypoint;sketch=0;size=6;pointerEvents=1;points=[];fillColor=none;resizable=0;rotatable=0;perimeter=centerPerimeter;snapToPoint=1;" parent="1" vertex="1">
                    <mxGeometry x="480" y="90" width="40" height="40" as="geometry"/>
                </mxCell>
                <mxCell id="29" value="" style="edgeStyle=orthogonalEdgeStyle;rounded=0;orthogonalLoop=1;jettySize=auto;html=1;" parent="1" source="26" target="28" edge="1">
                    <mxGeometry relative="1" as="geometry"/>
                </mxCell>
                <mxCell id="26" value="Conectar API Handy" style="whiteSpace=wrap;html=1;" parent="1" vertex="1">
                    <mxGeometry x="310" y="380" width="120" height="60" as="geometry"/>
                </mxCell>
                <mxCell id="31" value="" style="edgeStyle=orthogonalEdgeStyle;rounded=0;orthogonalLoop=1;jettySize=auto;html=1;" parent="1" source="28" target="30" edge="1">
                    <mxGeometry relative="1" as="geometry"/>
                </mxCell>
                <mxCell id="28" value="Consultar productos validados en el piking" style="whiteSpace=wrap;html=1;" parent="1" vertex="1">
                    <mxGeometry x="310" y="470" width="120" height="60" as="geometry"/>
                </mxCell>
                <mxCell id="32" value="" style="edgeStyle=orthogonalEdgeStyle;rounded=0;orthogonalLoop=1;jettySize=auto;html=1;" parent="1" source="30" target="16" edge="1">
                    <mxGeometry relative="1" as="geometry"/>
                </mxCell>
                <mxCell id="30" value="Sumar&amp;nbsp; cantidad de productos nuevos" style="whiteSpace=wrap;html=1;" parent="1" vertex="1">
                    <mxGeometry x="310" y="585" width="120" height="60" as="geometry"/>
                </mxCell>
            </root>
        </mxGraphModel>
    </diagram>
</mxfile>